<svg width="30" height="8" viewBox="0 0 30 8" fill="none" xmlns="http://www.w3.org/2000/svg">
<g clip-path="url(#clip0_75:9)">
<path d="M9.23824 6.01157L7.54018 2.46542H7.52672L7.34697 5.45956C7.32691 5.79893 7.57999 5.87208 7.87974 5.88516V6.01157H6.49438V5.88516C6.98061 5.88516 7.04068 5.77894 7.07427 5.17321L7.23389 2.58523C7.26024 2.14617 7.2471 2.02655 6.83414 1.99969V1.87988H7.83974L9.44497 5.23315L11.0435 1.87988H12.0223V1.99969C11.6957 2.02655 11.5691 2.0329 11.5827 2.25945L11.7958 5.27327C11.8358 5.88516 11.8888 5.88516 12.3754 5.88516V6.01157H10.6633V5.88516C10.9765 5.88516 11.283 5.79893 11.2563 5.44648L11.0633 2.46542H11.0497L9.39183 6.01157H9.23824Z" fill="#0D6EFD"/>
<path d="M14.2601 4.149C14.1868 3.71648 13.92 3.43044 13.6009 3.43044C13.3805 3.43044 13.0476 3.53038 12.8944 4.149H14.2601ZM12.8746 4.32182C12.8612 4.4217 12.8479 4.51446 12.8479 4.60157C12.8479 5.29314 13.3342 5.75893 13.8601 5.75893C14.1934 5.75893 14.4529 5.6261 14.7061 5.32654L14.779 5.40654C14.4995 5.75893 14.08 6.0915 13.5939 6.0915C12.941 6.0915 12.4351 5.4993 12.4351 4.7276C12.4351 4.02258 12.9076 3.30371 13.7202 3.30371C14.6195 3.30371 14.5998 3.94937 14.8195 4.16906L14.8195 4.32182H12.8746Z" fill="#0D6EFD"/>
<path d="M17.2836 3.98222C17.0436 3.62971 16.8038 3.48291 16.4909 3.48291C15.9711 3.48291 15.632 3.95555 15.632 4.58077C15.632 5.24618 16.0181 5.8053 16.4971 5.8053C16.7037 5.8053 16.9897 5.67869 17.2836 5.47266L17.2836 3.98222ZM17.2836 2.13933C17.2836 2.01273 17.2363 1.97933 17.0232 1.95305L16.8038 1.92612V1.81291L17.7298 1.54053V5.44618C17.7298 5.67209 17.869 5.71869 18.0558 5.66555L18.2155 5.61914V5.75857L17.3627 6.09108H17.2836V5.61914C16.8502 5.93165 16.5041 6.09108 16.251 6.09108C15.6579 6.09108 15.1851 5.5192 15.1851 4.80725C15.1851 3.97536 15.818 3.30335 16.6305 3.30335C16.8305 3.30335 17.103 3.35688 17.2836 3.43009L17.2836 2.13933Z" fill="#0D6EFD"/>
<path d="M19.0744 1.77344C19.2348 1.77344 19.3677 1.8862 19.3677 2.02627C19.3677 2.16563 19.2348 2.27903 19.0744 2.27903C18.9152 2.27903 18.7884 2.16563 18.7884 2.02627C18.7884 1.8862 18.9151 1.7735 19.0744 1.77344ZM19.3481 5.50556C19.3481 5.73877 19.4741 5.88493 19.8271 5.88493V6.01128H18.3491V5.88493C18.755 5.88493 18.9014 5.75179 18.9014 5.39947V4.06192C18.9014 3.80217 18.8682 3.76928 18.6953 3.73588L18.3815 3.67594V3.56985L19.2474 3.27029H19.3481V5.50556Z" fill="#0D6EFD"/>
<path d="M22.2981 5.39981C22.0189 5.84559 21.6518 6.09144 21.1192 6.09144C20.32 6.09144 20.0005 5.33314 20.0005 4.80767C20.0006 3.97572 20.6862 3.30371 21.5324 3.30371C21.9516 3.30371 22.2783 3.47013 22.2783 3.68308C22.2783 3.7961 22.1914 3.8829 22.0849 3.8829C21.7589 3.8829 21.6789 3.47667 21.3057 3.47667C20.846 3.47667 20.4464 4.02258 20.4464 4.66132C20.4464 5.32654 20.846 5.8188 21.3858 5.8188C21.7053 5.8188 21.9585 5.67245 22.1979 5.33987L22.2981 5.39981Z" fill="#0D6EFD"/>
<path d="M23.2504 1.77344C23.4106 1.77344 23.5435 1.8862 23.5435 2.02627C23.5435 2.16563 23.4105 2.27903 23.2504 2.27903C23.0908 2.27903 22.964 2.16563 22.964 2.02627C22.964 1.8862 23.0908 1.7735 23.2504 1.77344ZM23.524 5.50556C23.524 5.73877 23.65 5.88493 24.0029 5.88493V6.01128H22.5244V5.88493C22.9303 5.88493 23.0776 5.75179 23.0776 5.39947V4.06192C23.0776 3.80217 23.0438 3.76928 22.8706 3.73588L22.5582 3.67594V3.56985L23.4237 3.27029H23.524V5.50556Z" fill="#0D6EFD"/>
<path d="M25.0687 5.43302C25.0687 5.79905 25.1551 5.88528 25.5149 5.88528V6.01163H24.1763V5.88528C24.469 5.88528 24.6218 5.72585 24.6218 5.46629V4.069C24.6218 3.82283 24.5958 3.77642 24.4225 3.74276L24.1962 3.69623V3.58994L24.9621 3.31031H25.0687V3.82956C25.5149 3.55013 25.8877 3.30371 26.2137 3.30371C26.6668 3.30371 26.9265 3.63667 26.9265 4.30207C26.9265 5.18717 26.88 5.35968 26.873 5.61949C26.8665 5.79905 26.9731 5.88528 27.2464 5.88528H27.3928V6.01163H25.9609V5.88528C26.154 5.87887 26.2675 5.83175 26.3401 5.75893C26.4672 5.63245 26.4803 5.14685 26.4803 4.2617C26.4804 3.72982 26.2206 3.56327 25.954 3.56327C25.7412 3.56327 25.4148 3.74975 25.0687 3.98918L25.0687 5.43302Z" fill="#0D6EFD"/>
<path d="M29.3509 4.149C29.2773 3.71648 29.011 3.43044 28.6915 3.43044C28.4717 3.43044 28.1387 3.53038 27.9856 4.149H29.3509ZM27.9659 4.32182C27.952 4.4217 27.9391 4.51446 27.9391 4.60157C27.9391 5.29314 28.4249 5.75893 28.9516 5.75893C29.2843 5.75893 29.5436 5.6261 29.7973 5.32654L29.8705 5.40654C29.5907 5.75893 29.171 6.0915 28.6846 6.0915C28.0322 6.0915 27.5259 5.4993 27.5259 4.7276C27.5259 4.02258 27.9988 3.30371 28.811 3.30371C29.7102 3.30371 29.6905 3.94937 29.9102 4.16906V4.32182H27.9659Z" fill="#0D6EFD"/>
<path d="M1.50783 2.66626V4.2868H1.31989L1.11474 4.04845V1.45469L1.33671 1.19031H2.77153L3.0022 1.45469V4.03987L2.78886 4.2868H2.57553V2.66626H1.50783ZM4.47086 2.66626V6.07039L4.22324 6.3088H2.80581L2.57553 6.05293V5.43875H3.01953L4.06114 4.29594V1.21608L3.01083 0.0898438H1.11474L0.0900879 1.19031V4.33017L1.11474 5.43875H1.52459V6.31788L2.54067 7.43542H4.47086L5.50415 6.31788V2.66626H4.47086Z" fill="#0D6EFD"/>
<path d="M1.09065 5.77118H1.1078C1.1283 5.77118 1.14462 5.76445 1.14462 5.74826C1.14462 5.73367 1.13408 5.72408 1.11072 5.72408C1.10113 5.72408 1.09446 5.72479 1.09065 5.72591V5.77118ZM1.08957 5.86008H1.05275V5.70268C1.06735 5.69989 1.08767 5.6969 1.11383 5.6969C1.14373 5.6969 1.15726 5.70185 1.16888 5.70941C1.17751 5.71627 1.1843 5.72871 1.1843 5.74319C1.1843 5.76166 1.17078 5.77512 1.15135 5.78084V5.78292C1.16691 5.78775 1.17573 5.8002 1.18037 5.8214C1.18526 5.84566 1.18818 5.85531 1.19192 5.86007H1.15237C1.14748 5.85437 1.14462 5.84083 1.13973 5.82242C1.13688 5.80514 1.12729 5.79733 1.10703 5.79733H1.08957L1.08957 5.86008ZM1.11383 5.65157C1.04424 5.65157 0.991984 5.70871 0.991984 5.77798C0.991984 5.84839 1.04424 5.90465 1.11561 5.90465C1.18526 5.90537 1.23643 5.84839 1.23643 5.77798C1.23643 5.70871 1.18526 5.65157 1.11478 5.65157H1.11383ZM1.11561 5.61963C1.20659 5.61963 1.27714 5.69017 1.27714 5.77798C1.27714 5.86782 1.2066 5.93735 1.11478 5.93735C1.0238 5.93735 0.951416 5.86782 0.951416 5.77798C0.951416 5.69017 1.0238 5.61963 1.11478 5.61963H1.11561Z" fill="#0D6EFD"/>
</g>
<defs>
<clipPath id="clip0_75:9">
<rect width="30" height="7.52556" fill="white"/>
</clipPath>
</defs>
</svg>
